<svg width="72" height="74" viewBox="0 0 72 74" fill="none" xmlns="http://www.w3.org/2000/svg">
<path d="M71.7582 0C69.9762 2.18203 67.9518 4.26364 65.9736 6.30187C55.8553 16.7266 45.4123 27.007 34.8186 36.9269C28.4012 42.9361 21.8711 48.8346 15.139 54.4863L25.1386 27.8201L71.7582 0Z" fill="white"/>
<path d="M0.345502 73.9714C0.0966174 74.0982 -0.12317 73.7737 0.0796008 73.5815C0.0820688 73.5792 0.084407 73.5769 0.086875 73.5745C3.50488 70.2721 7.96921 66.8549 11.6775 63.7561C21.6171 55.4503 31.5995 47.1354 41.6503 38.9662C46.3929 35.1116 51.222 31.3567 55.987 27.5325C56.1732 27.3831 56.4379 27.5695 56.3601 27.795L48.9951 49.1184C48.975 49.1766 48.933 49.2248 48.8781 49.2528L0.345502 73.9714Z" fill="white"/>
</svg>